<?xml version="1.0" encoding="UTF-8" standalone="no"?>
<!-- Created with Inkscape (http://www.inkscape.org/) -->

<svg
   width="28"
   height="32"
   viewBox="0 0 28 32"
   version="1.1"
   id="svg1"
   inkscape:version="1.3 (0e150ed6c4, 2023-07-21)"
   sodipodi:docname="crack.svg"
   xmlns:inkscape="http://www.inkscape.org/namespaces/inkscape"
   xmlns:sodipodi="http://sodipodi.sourceforge.net/DTD/sodipodi-0.dtd"
   xmlns="http://www.w3.org/2000/svg"
   xmlns:svg="http://www.w3.org/2000/svg">
  <sodipodi:namedview
     id="namedview1"
     pagecolor="#505050"
     bordercolor="#ffffff"
     borderopacity="1"
     inkscape:showpageshadow="0"
     inkscape:pageopacity="0"
     inkscape:pagecheckerboard="1"
     inkscape:deskcolor="#d1d1d1"
     inkscape:document-units="mm"
     inkscape:clip-to-page="false"
     inkscape:zoom="16.186634"
     inkscape:cx="9.1433461"
     inkscape:cy="12.510321"
     inkscape:window-width="1280"
     inkscape:window-height="661"
     inkscape:window-x="213"
     inkscape:window-y="842"
     inkscape:window-maximized="0"
     inkscape:current-layer="layer1" />
  <defs
     id="defs1" />
  <g
     inkscape:label="Layer 1"
     inkscape:groupmode="layer"
     id="layer1">
    <ellipse
       style="fill:#007f0e;fill-opacity:1;stroke-width:0.234043"
       id="path1"
       cx="13.93997"
       cy="13.733962"
       rx="13.93997"
       ry="13.733962" />
    <path
       style="fill:#007f0e;fill-opacity:1;stroke-width:0.265309"
       id="path2"
       d="M 13.789912,31.999999 10.50467,23.70124 2.9713489,22.259033 l 5.53187,-6.331029 -1.190135,-9.0827109 6.7041261,4.3859679 6.797783,-4.1712193 -1.388497,9.0417023 5.39139,6.504757 -7.562264,1.202109 z" />
    <ellipse
       style="fill:#cd4444;fill-opacity:0;stroke:#ffffff;stroke-width:0.65016;stroke-dasharray:none;stroke-opacity:1"
       id="path3"
       cx="13.93997"
       cy="13.596618"
       rx="12.717161"
       ry="12.373814" />
    <path
       style="fill:#cd4444;fill-opacity:0;stroke:#ffffff;stroke-width:0.384787;stroke-dasharray:none;stroke-opacity:1"
       d="m 7.2790019,3.708157 c 0.303641,0.3677969 0.03848,0.8405744 0.137333,1.2360569 0.224159,0.896638 0.07374,-0.5188904 0.27468,0.6867028 0.07773,0.4663562 -0.09007,0.506569 0.137333,0.961371 0.119386,0.2387639 0.29264,0.4479477 0.412018,0.6867028 0.08939,0.178772 -0.135017,0.6890115 0,0.8240413 0.03238,0.032372 0.10497,-0.032372 0.137334,0 0.03238,0.032372 -0.04343,0.1228537 0,0.1373342 0.501218,0.1670696 3.0260521,0.1419115 3.2961561,0.4120156 0.640502,0.640502 -0.681731,2.1924674 -1.098717,2.6094554 -0.03238,0.03238 -0.116867,-0.04095 -0.137335,0 -0.04095,0.08192 0.03397,0.189669 0,0.274677 -0.198278,0.495698 -0.5037121,0.946289 -0.8240421,1.373396 -0.343346,0.457801 -0.251784,-0.228901 -0.412017,0.412016 -0.155728,0.622915 1.4054371,0.744253 1.7854131,0.961381 0.22485,0.128481 0.31773,0.433545 0.549365,0.549363 0.531512,0.265752 -0.05422,-0.191564 0.412016,0.274677 0.06474,0.06474 0.245725,-0.08687 0.274677,0 0.276227,0.828668 -0.349345,1.848085 0.274677,2.472107 0.30539,0.30539 0.761476,0.416906 1.098719,0.686703 0.252777,0.202221 0.4215,0.501056 0.686694,0.686692 0.971146,0.679804 1.272343,0.26561 2.334777,0 0.722996,-0.180743 1.470496,-0.247864 2.197438,-0.412015 2.746297,-0.620131 1.186759,-0.549356 2.884131,-0.549356 0.292652,0 0.82168,-0.01411 0.824033,0 0.174154,1.044893 0,3.114819 0,4.257529"
       id="path5" />
    <path
       style="fill:#cd4444;fill-opacity:0;stroke:#ffffff;stroke-width:0.384787;stroke-dasharray:none;stroke-opacity:1"
       d="m 11.673872,25.40782 c 0.457792,-0.274679 0.885528,-0.607207 1.373396,-0.824041 0.204611,-0.09092 1.752719,-0.549356 2.060091,-0.549356 0.549363,0 -0.228901,0.04573 0.137334,-0.137334 0.221418,-0.110708 0.405806,0.149774 0.549363,-0.137335 0.02052,-0.04095 0.03238,-0.10497 0,-0.137333 -0.07236,-0.07236 -0.202292,-0.06493 -0.274686,-0.137335 -0.454326,-0.454352 -0.776389,-1.051094 -1.236048,-1.510753 -0.08509,-0.08509 -0.416625,-0.544763 -0.274687,-0.686703 0.02309,-0.02309 0.911605,-0.399579 0.96138,-0.412017 0.133246,-0.03336 0.294252,0.07067 0.412017,0 0.141537,-0.08491 0.147882,-0.306353 0.274685,-0.412015 0.235915,-0.196605 0.532691,-0.314908 0.824032,-0.412025 0.07767,-0.02591 0.356855,0.0552 0.412018,0 0.05847,-0.05847 0.02034,-0.783369 0,-0.824032 -0.09799,-0.196004 -0.274678,-0.166442 -0.274678,-0.412026"
       id="path6" />
    <path
       style="fill:#cd4444;fill-opacity:0;stroke:#ffffff;stroke-width:0.384787;stroke-dasharray:none;stroke-opacity:1"
       d="m 11.673872,14.557987 c -0.07323,-1.316358 0.433476,-2.579422 0.686693,-3.845502 0.01796,-0.0898 -0.04095,-0.192792 0,-0.274685 0.02045,-0.04095 0.09924,0.02539 0.137334,0 0.714744,-0.4764939 -0.351484,-0.174253 0.961382,-0.5493549 0.294057,-0.084036 0.791444,0 1.098718,0 1.09871,0 2.197428,0 3.296147,0 0.686702,0 1.373945,-0.02742 2.060099,0 0.459712,0.0184 0.919575,0.06166 1.373386,0.1373329 0.05698,0.0096 0.608375,0.293996 0.686704,0.137334 0.142112,-0.2842219 -0.205408,-0.4788712 -0.274677,-0.6866934 -0.07236,-0.2171539 0.08501,-0.4741751 0,-0.6867013 -0.0613,-0.1532527 -0.216721,-0.2574646 -0.274677,-0.4120171 -0.198835,-0.5302129 -0.232953,-1.1108728 -0.412027,-1.6480739 -0.3316,-0.9948072 0.03963,0.2165263 -0.274676,-0.4120242 -0.09405,-0.1881138 0.07404,-0.2853994 0.137334,-0.412017 0.07323,-0.146414 -0.09148,-0.4121394 0,-0.5493542 0.08883,-0.1332463 0.428275,-0.2141368 0.549364,-0.2746871 0.115801,-0.057936 0.15886,-0.2167638 0.274677,-0.274677 0.108465,-0.054222 0.296191,0.038562 0.412015,0 0.359544,-0.1198455 0.162374,-0.2746771 0.412018,-0.2746771"
       id="path7" />
    <path
       style="fill:#cd4444;fill-opacity:0;stroke:#ffffff;stroke-width:0.384787;stroke-dasharray:none;stroke-opacity:1"
       d="m 12.909929,17.854144 c -2.105875,0.04573 -4.2117501,0.09156 -6.3176251,0.137334 -0.04577,0 -0.137335,0.04573 -0.137335,0 0,-0.40186 0.192601,0.0268 0.27468,-0.137334 0.04095,-0.08192 -0.02221,-0.185857 0,-0.274686 0.09122,-0.364878 0.356552,-0.914709 0.549357,-1.23605 0.06662,-0.111038 0.208059,-0.163645 0.27468,-0.274685 0.07447,-0.124135 0.05704,-0.291565 0.137334,-0.412016 4.44e-4,-6.55e-4 0.306811,-0.105209 0.137334,-0.274678 -0.09712,-0.09712 -0.281727,0.04343 -0.41202,0 -0.194226,-0.06474 -0.35513,-0.209935 -0.549356,-0.274677 -0.221456,-0.07377 -0.465245,-0.06351 -0.686698,-0.137335 C 5.8297134,14.853152 5.413385,14.53126 5.0815622,14.420654 c -0.089466,-0.02981 -0.6097967,0.07686 -0.6866979,0 -0.1942276,-0.194227 0.049133,-0.553787 0,-0.824034 C 4.3430678,13.311754 4.219132,13.044683 4.1201849,12.77258 3.7984686,11.887857 3.3912496,11.114147 3.2961467,10.163125 c -0.040413,-0.4040632 0.1488801,-2.1743494 0,-2.4721146 C 3.1981433,7.4950159 3.0214685,7.5245785 3.0214685,7.2789948"
       id="path8" />
    <path
       style="fill:#cd4444;fill-opacity:0;stroke:#ffffff;stroke-width:0.119418;stroke-dasharray:none;stroke-opacity:1"
       d="m 14.283326,9.7511057 c 0.498899,-0.4795268 1.21243,-0.5057198 1.785413,-0.8240413 0.200089,-0.1111654 0.344619,-0.3096532 0.549354,-0.412017 0.37888,-0.1894394 0.245689,0.3326522 0.549363,-0.2746771 0.02052,-0.040951 -0.09392,0.01451 -0.137348,0 -0.0971,-0.032372 -0.189501,-0.080578 -0.274677,-0.1373342 C 16.507495,7.9377356 16.333092,7.6858544 16.068737,7.5536719 15.985497,7.5121019 15.71427,7.4738849 15.656711,7.4163377 15.508068,7.267694 15.92249,6.3383886 15.931399,6.3176192 c 0.191942,-0.4478682 0.38209,-0.4432765 0.686694,-0.8240324 0.433501,-0.5418808 -0.27796,0.0036 0.412015,-0.6867028 0.03238,-0.032372 0.104971,0.032372 0.137348,0 0.02531,-0.025305 0.112029,-0.3867078 0.137335,-0.4120156 0.28416,-0.2841599 -0.01104,0.4342358 0.274677,-0.1373342 0.07511,-0.1502271 0.132944,-0.4076212 0.274678,-0.5493642 0.03238,-0.032372 0.116867,0.040951 0.137335,0 0.04095,-0.081917 -0.04095,-0.1927832 0,-0.2746771 0.02052,-0.040951 0.09156,0 0.137335,0 0.04573,-0.04573 0.116865,-0.075901 0.137333,-0.1373343 0.02891,-0.086869 -0.04095,-0.1927831 0,-0.274677 0.349017,-0.6980338 0.412026,-0.3333777 0.412026,-0.8240413"
       id="path12" />
    <path
       style="fill:#cd4444;fill-opacity:0;stroke:#ffffff;stroke-width:0.119418;stroke-dasharray:none;stroke-opacity:1"
       d="m 15.244697,22.661026 c 0.59514,0 1.190281,0 1.785412,0 0.320463,0 0.642031,0.02663 0.961381,0 1.863555,-0.155296 0.02689,-0.137334 0.96138,-0.137334 0.05652,0 0.37566,0.03636 0.412015,0 0.08192,-0.08192 0.03123,-0.761547 0,-0.824042 -0.154243,-0.308494 -0.473803,-0.168227 -0.686693,-0.274677 -0.09156,-0.04573 -0.04573,-0.2289 -0.137334,-0.274677 -0.05793,-0.02894 -0.183123,-0.09156 -0.137334,-0.137334 0.191679,-0.191679 1.236049,0.241762 1.236049,-0.137334 0,-0.12294 0.02281,-2.174598 0,-2.197436 -0.03238,-0.03238 -0.09156,0 -0.137333,0"
       id="path13" />
    <path
       style="fill:#cd4444;fill-opacity:0;stroke:#ffffff;stroke-width:0.119418;stroke-dasharray:none;stroke-opacity:1"
       d="m 6.8669829,15.107352 c -0.18312,-0.228901 -0.366239,-0.457802 -0.549358,-0.686703 -0.04578,-0.137334 -0.05703,-0.291564 -0.137334,-0.412016 -0.0018,-0.0026 -0.4636804,-0.08572 -0.27468,-0.274678 0.178409,-0.178409 2.07768,-0.71769 2.609449,-0.824042 0.08979,-0.01796 0.192792,0.04095 0.274686,0 0.327725,-0.163867 0.224249,-0.384115 0.274678,-0.686692 0.08068,-0.484198 0.378128,-0.807996 0.549354,-1.236059 0.190821,-0.47705 -0.218568,-1.6229598 0,-2.0600976 0.133822,-0.2676542 0.274678,-0.2177109 0.274678,-0.5493556"
       id="path14" />
    <path
       style="fill:#cd4444;fill-opacity:0;stroke:#ffffff;stroke-width:0.119418;stroke-dasharray:none;stroke-opacity:1"
       d="m 15.9314,18.4035 c -1.346542,-1.795382 0.380905,0.380914 -0.824041,-0.824042 -0.07236,-0.07236 -0.06493,-0.202293 -0.137334,-0.274678 -0.03238,-0.03238 -0.104959,0.03238 -0.137335,0 -0.02531,-0.02531 -0.112028,-0.386708 -0.137334,-0.412015 -0.284161,-0.284161 0.01104,0.434236 -0.274679,-0.137335 -0.059,-0.117917 -0.05689,-0.847616 0,-0.961379 0.137335,-0.27468 0.549356,-0.412018 0.686695,-0.686695 0.06722,-0.134397 0.69132,-1.222186 0.686702,-1.236057 -0.158896,-0.476684 -0.500491,-0.907877 -0.686702,-1.373401 -0.10752,-0.26883 -0.157083,-0.559457 -0.274678,-0.824042 -0.148282,-0.333625 -0.430575,-0.605012 -0.549355,-0.961371 -0.02893,-0.08687 0.04095,-0.192792 0,-0.274685 -0.115772,-0.231538 -0.412026,-0.261605 -0.412026,-0.5493549"
       id="path15" />
    <path
       style="fill:#cd4444;fill-opacity:0;stroke:#ffffff;stroke-width:0.119418;stroke-dasharray:none;stroke-opacity:1"
       d="m 20.188926,21.699647 2.746793,-3.158809"
       id="path16" />
    <path
       style="fill:#cd4444;fill-opacity:0;stroke:#ffffff;stroke-width:0.119418;stroke-dasharray:none;stroke-opacity:1"
       d="m 19.227547,21.836985 c 0.366239,0 0.732479,0 1.098718,0"
       id="path17" />
    <path
       style="fill:#cd4444;fill-opacity:0;stroke:#ffffff;stroke-width:0.119418;stroke-dasharray:none;stroke-opacity:1"
       d="m 7.9656999,24.446438 c 0.09829,-0.556634 -0.728205,-0.669903 -0.961379,-0.96137 -0.22915,-0.286443 -0.125732,-0.471991 -0.412017,-0.686702 -0.115816,-0.08687 -0.287881,-0.06288 -0.412018,-0.137334 -0.111038,-0.06661 -0.166942,-0.20285 -0.274681,-0.274677 -0.03809,-0.02539 -0.1831192,0 -0.1373346,0 0.6728526,0 -0.1864364,0.04714 0.9613786,-0.412024 0.44377,-0.177509 0.916918,-0.270344 1.373396,-0.412018 0.87117,-0.27036 1.744102,-0.535582 2.6094521,-0.824032 0.131735,-0.04387 0.857629,-0.363807 1.09872,-0.412024 0.14828,-0.02964 0.552158,0.06732 0.686692,0 0.12284,-0.06139 0.06139,-0.289177 0,-0.412018 -0.02052,-0.04095 -0.111937,0.03814 -0.137334,0 -0.09128,-0.136917 -0.464515,-1.013869 -0.549355,-1.098719 -0.03238,-0.03238 -0.104981,0.03238 -0.137333,0 -0.06474,-0.06474 0.06474,-0.209934 0,-0.274675 -0.03238,-0.03238 -0.10497,0.03238 -0.137335,0 -0.116722,-0.116709 -0.200867,-0.264382 -0.274687,-0.412018 -0.119053,-0.238109 0.01645,-0.258189 -0.274677,-0.549363"
       id="path18" />
    <path
       style="fill:#cd4444;fill-opacity:0;stroke:#ffffff;stroke-width:0.119418;stroke-dasharray:none;stroke-opacity:1"
       d="m 19.639564,18.4035 c 1.007155,-0.549356 2.020504,-1.08753 3.021478,-1.648074 0.137333,-0.09156 0.274677,-0.183125 0.412016,-0.274677 0.09156,0 0.192784,0.04095 0.274677,0 0.181152,-0.09057 -0.458881,-2.428507 -0.686693,-2.884132 -0.02052,-0.04095 -0.10497,0.03238 -0.137349,0 -0.06474,-0.06474 0.04095,-0.192792 0,-0.274687 -0.02893,-0.05793 -0.137334,-0.07262 -0.137334,-0.137334 0,-0.01867 0.369592,0.02565 0.549362,0 0.861779,-0.123113 1.428745,-0.494521 2.19743,-0.686693 0.08883,-0.02221 0.18967,0.03397 0.274686,0 0.153252,-0.0613 0.258756,-0.213378 0.412017,-0.274678 0.08501,-0.03397 0.184892,0.01796 0.274677,0 0.24454,0.275818 0.412025,-0.228901 0.549364,-0.274687 0.08687,-0.02894 0.192784,0.04095 0.274677,0 0.04095,-0.02053 0,-0.09155 0,-0.137334"
       id="path19" />
  </g>
</svg>
