<?xml version="1.0" encoding="UTF-8" standalone="no"?>
<!-- Created with Inkscape (http://www.inkscape.org/) -->

<svg
   width="28"
   height="32"
   viewBox="0 0 28 32"
   version="1.1"
   id="svg1"
   sodipodi:docname="patch.svg"
   inkscape:version="1.3 (0e150ed6c4, 2023-07-21)"
   xmlns:inkscape="http://www.inkscape.org/namespaces/inkscape"
   xmlns:sodipodi="http://sodipodi.sourceforge.net/DTD/sodipodi-0.dtd"
   xmlns="http://www.w3.org/2000/svg"
   xmlns:svg="http://www.w3.org/2000/svg">
  <sodipodi:namedview
     id="namedview1"
     pagecolor="#505050"
     bordercolor="#ffffff"
     borderopacity="1"
     inkscape:showpageshadow="0"
     inkscape:pageopacity="0"
     inkscape:pagecheckerboard="1"
     inkscape:deskcolor="#d1d1d1"
     inkscape:document-units="mm"
     inkscape:clip-to-page="false"
     inkscape:zoom="11.445679"
     inkscape:cx="13.192752"
     inkscape:cy="11.838529"
     inkscape:window-width="1280"
     inkscape:window-height="661"
     inkscape:window-x="2290"
     inkscape:window-y="301"
     inkscape:window-maximized="0"
     inkscape:current-layer="layer1" />
  <defs
     id="defs1" />
  <g
     inkscape:label="Layer 1"
     inkscape:groupmode="layer"
     id="layer1">
    <ellipse
       style="fill:#8dbe8c;fill-opacity:1;stroke-width:0.235051"
       id="path1-4"
       cx="14"
       cy="13.793103"
       rx="14"
       ry="13.793103" />
    <path
       style="fill:#8dbe8c;fill-opacity:1;stroke-width:0.266452"
       id="path2-0"
       d="M 13.960074,31.957584 10.660687,23.623091 3.0949212,22.174675 8.6506171,15.816387 7.4553545,6.6945584 l 6.7329965,4.4048556 6.827051,-4.1891841 -1.394475,9.0806371 5.414614,6.532771 -7.594831,1.207288 z" />
    <ellipse
       style="fill:#cd4444;fill-opacity:0;stroke:#ffffff;stroke-width:0.65296;stroke-dasharray:none;stroke-opacity:1"
       id="path3-2"
       cx="14.027758"
       cy="13.894735"
       rx="12.771926"
       ry="12.427097" />
    <path
       style="fill:#cd4444;fill-opacity:0;stroke:#ffffff;stroke-width:0.547244;stroke-dasharray:none;stroke-opacity:1"
       d="M 1.3140012,14.179134 C 13.617292,1.7797524 13.71121,1.8773858 13.71121,1.8773858"
       id="path25" />
    <path
       style="fill:#cd4444;fill-opacity:0;stroke:#ffffff;stroke-width:0.547244;stroke-dasharray:none;stroke-opacity:1"
       d="M 14.615726,26.196144 C 26.919017,13.796762 27.012934,13.894395 27.012934,13.894395"
       id="path25-2" />
    <path
       style="fill:#cd4444;fill-opacity:0;stroke:#ffffff;stroke-width:0.400846;stroke-dasharray:none;stroke-opacity:1"
       d="M 18.490079,8.9916261 C 21.210341,6.2813312 21.231106,6.3026714 21.231106,6.3026714"
       id="path25-6" />
    <path
       style="fill:#cd4444;fill-opacity:0;stroke:#ffffff;stroke-width:0.400846;stroke-dasharray:none;stroke-opacity:1"
       d="M 9.8940032,17.213442 C 12.614265,14.503147 12.635031,14.524488 12.635031,14.524488"
       id="path25-6-8" />
    <path
       style="fill:#cd4444;fill-opacity:0;stroke:#ffffff;stroke-width:0.400846;stroke-dasharray:none;stroke-opacity:1"
       d="M 6.0363598,20.866072 C 8.7566204,18.155777 8.7773907,18.177118 8.7773907,18.177118"
       id="path25-6-2" />
    <path
       style="fill:#cd4444;fill-opacity:0;stroke:#ffffff;stroke-width:0.400846;stroke-dasharray:none;stroke-opacity:1"
       d="m 13.990347,13.214631 c 2.720262,-2.710295 2.741027,-2.688954 2.741027,-2.688954"
       id="path25-6-6" />
    <path
       style="fill:#aaedc2;fill-opacity:0;stroke:#ffffff;stroke-width:0.202551;stroke-dasharray:none;stroke-opacity:1"
       d="m 14.778644,16.025826 c 2.340767,-2.535831 2.340767,-2.438298 2.340767,-2.438298 l 3.511149,3.218555 -2.438298,2.633363 z"
       id="path26" />
    <path
       style="fill:#a9eec2;fill-opacity:0;stroke:#ffffff;stroke-width:0.212281;stroke-dasharray:none;stroke-opacity:1"
       d="M 1.8811566,15.665049 C 4.800133,13.431473 4.800133,13.517381 4.800133,13.517381 l 4.3784666,2.834923 -3.040608,2.319482 z"
       id="path26-9" />
    <path
       style="fill:#aaedc2;fill-opacity:0;stroke:#ffffff;stroke-width:0.152395;stroke-dasharray:none;stroke-opacity:1"
       d="m 12.211856,5.9463271 c 1.822505,-1.8436893 1.822505,-1.7727774 1.822505,-1.7727774 l 2.733758,2.3400667 -1.898448,1.9146004 z"
       id="path26-9-8" />
    <path
       style="fill:#a9eec2;fill-opacity:0;stroke:#ffffff;stroke-width:0.0840465;stroke-dasharray:none;stroke-opacity:1"
       d="m 16.591759,17.598249 -1.600502,-1.605835 1.067736,-1.090526 1.067736,-1.090526 1.626559,1.487137 1.626563,1.487137 -0.190702,0.254052 c -0.104884,0.139731 -0.597091,0.683881 -1.093793,1.209225 l -0.903094,0.955172 z"
       id="path27" />
    <path
       style="fill:#a9eec2;fill-opacity:0;stroke:#ffffff;stroke-width:0.0840465;stroke-dasharray:none;stroke-opacity:1"
       d="m 16.652563,17.553162 -1.51985,-1.527336 0.99335,-1.048659 0.993348,-1.04866 1.573716,1.438643 1.573716,1.438643 -0.296965,0.341506 c -0.163331,0.18783 -0.634577,0.699636 -1.047216,1.137351 l -0.750248,0.795845 z"
       id="path28" />
    <path
       style="fill:#a9eec2;fill-opacity:0;stroke:#ffffff;stroke-width:0.0840465;stroke-dasharray:none;stroke-opacity:1"
       d="M 13.657025,7.1050083 12.437877,5.9457639 13.233461,5.143669 14.029048,4.3415741 15.257251,5.3928697 c 0.67551,0.5782138 1.228202,1.101449 1.228202,1.1627451 0,0.061293 -0.362089,0.4708167 -0.804638,0.9100429 l -0.804641,0.7985942 z"
       id="path31" />
    <path
       style="fill:#a9eec2;fill-opacity:0;stroke:#ffffff;stroke-width:0.0840465;stroke-dasharray:none;stroke-opacity:1"
       d="M 13.729029,7.0517177 12.581881,5.9484628 13.295416,5.1920756 14.008951,4.4356874 15.20233,5.4830098 16.39571,6.5303313 15.817603,7.1817362 C 14.823191,8.3022251 15.043549,8.3159427 13.729029,7.0517177 Z"
       id="path32" />
    <path
       style="fill:#a9eec2;fill-opacity:0;stroke:#ffffff;stroke-width:0.0840465;stroke-dasharray:none;stroke-opacity:1"
       d="m 4.0760196,17.029769 -1.9247458,-1.372562 1.286641,-0.964361 c 0.8205326,-0.615004 1.3411423,-0.94352 1.4370855,-0.906834 0.2184987,0.08355 3.992424,2.523326 3.9926423,2.581176 2.349e-4,0.08476 -2.5922343,1.998561 -2.7327242,2.017277 -0.073785,0.0098 -1.0002878,-0.599785 -2.0588988,-1.354696 z"
       id="path35" />
    <path
       style="fill:#a9eec2;fill-opacity:0;stroke:#ffffff;stroke-width:0.0840465;stroke-dasharray:none;stroke-opacity:1"
       d="M 5.3169996,17.766278 C 3.7932274,16.751408 2.3322419,15.656958 2.4085042,15.587476 2.7204381,15.303282 4.521312,14.029317 4.6841929,13.97762 c 0.2365271,-0.07507 0.3655537,-0.0044 2.462023,1.349302 0.8445689,0.545325 1.5243904,1.025809 1.5107152,1.067739 -0.045431,0.139307 -2.3609793,1.820597 -2.510909,1.823138 -0.081036,0.0014 -0.454095,-0.20181 -0.8290225,-0.451521 z"
       id="path36" />
    <path
       style="fill:#a9eec2;fill-opacity:0;stroke:#ffffff;stroke-width:0.0840465;stroke-dasharray:none;stroke-opacity:1"
       d="M 5.1580346,17.523369 C 4.4055752,17.029285 3.3871485,16.299539 2.6458635,15.72329 2.500884,15.610586 2.6774989,15.459776 4.162013,14.428661 l 0.5995493,-0.416435 0.4232446,0.215923 c 0.5465829,0.278846 3.1595745,1.985838 3.2406506,2.117024 0.062629,0.101333 -2.1130075,1.77759 -2.3071596,1.77759 -0.026079,0 -0.458199,-0.269727 -0.9602633,-0.599394 z"
       id="path37" />
    <path
       style="fill:#a9eec2;fill-opacity:0;stroke:#ffffff;stroke-width:0.0840465;stroke-dasharray:none;stroke-opacity:1"
       d="m 4.9718695,17.268644 c -1.5395512,-1.042979 -2.2460159,-1.590523 -2.1832314,-1.69211 0.02924,-0.04731 0.4902835,-0.39811 1.0245404,-0.779547 l 0.9713741,-0.69352 0.7056373,0.416819 c 0.7958216,0.470088 2.3754231,1.507303 2.6273062,1.725167 0.1527807,0.132149 0.1215213,0.180301 -0.3901283,0.600936 -0.590648,0.485583 -1.5305159,1.178842 -1.5981823,1.178842 -0.022283,0 -0.5430737,-0.340464 -1.157316,-0.756587 z"
       id="path38" />
    <path
       style="fill:#a9eec2;fill-opacity:0;stroke:#ffffff;stroke-width:0.0840465;stroke-dasharray:none;stroke-opacity:1"
       d="M 4.9077735,17.102064 C 3.1797841,15.92741 2.8986585,15.691652 3.0329713,15.529815 3.093838,15.456475 3.5155804,15.130423 3.9701738,14.805256 l 0.8265357,-0.591215 0.504497,0.304825 c 0.9645883,0.582821 2.7927727,1.799932 2.7946296,1.860519 0.00188,0.06388 -1.3329883,1.113026 -1.7537086,1.378257 -0.2379867,0.150036 -0.2723535,0.134327 -1.434354,-0.655578 z"
       id="path39" />
    <path
       style="fill:#a9eec2;fill-opacity:0;stroke:#ffffff;stroke-width:0.0840465;stroke-dasharray:none;stroke-opacity:1"
       d="M 4.9279149,16.996787 C 4.3378452,16.596173 3.6807743,16.122559 3.4677546,15.944308 L 3.0804469,15.620219 3.6969998,15.140299 C 4.0361056,14.876343 4.4323381,14.584628 4.5775174,14.492044 L 4.841482,14.32371 6.3715747,15.321066 c 0.8415485,0.548546 1.51575,1.041036 1.4982222,1.094423 -0.047271,0.14398 -1.6110396,1.317757 -1.749802,1.313416 -0.065576,-0.0021 -0.6020126,-0.331504 -1.19208,-0.732118 z"
       id="path40" />
    <path
       style="fill:#a9eec2;fill-opacity:0;stroke:#ffffff;stroke-width:0.0840465;stroke-dasharray:none;stroke-opacity:1"
       d="M 5.7569351,17.421989 C 5.5691858,17.306584 4.9200008,16.860556 4.3143002,16.430815 L 3.2130274,15.649466 3.4852799,15.425991 c 0.1497369,-0.122911 0.517935,-0.398436 0.818215,-0.612276 l 0.5459671,-0.388801 1.4046742,0.946755 c 0.7725704,0.520714 1.4022791,0.990642 1.3993551,1.044285 -0.00498,0.09155 -1.4009346,1.219231 -1.5064279,1.216927 -0.026822,-4.7e-4 -0.2023789,-0.09549 -0.3901283,-0.210892 z"
       id="path41" />
    <path
       style="fill:#a9eec2;fill-opacity:0;stroke:#ffffff;stroke-width:0.0840465;stroke-dasharray:none;stroke-opacity:1"
       d="M 4.7699795,16.628092 C 4.0522042,16.127881 3.4690944,15.679788 3.4741762,15.632335 c 0.00508,-0.04745 0.3161671,-0.31365 0.6912943,-0.591548 l 0.6820499,-0.50527 1.2105809,0.826006 c 0.6658196,0.454303 1.2695975,0.883124 1.34173,0.952936 0.1088944,0.105393 0.01603,0.219938 -0.5472129,0.675022 -0.3730989,0.301451 -0.7006894,0.548092 -0.7279789,0.548092 -0.027289,0 -0.6368872,-0.409266 -1.35466,-0.909481 z"
       id="path42" />
    <path
       style="fill:#a9eec2;fill-opacity:0;stroke:#ffffff;stroke-width:0.0840465;stroke-dasharray:none;stroke-opacity:1"
       d="m 5.4720393,17.188083 c 0.00468,-0.113619 0.027792,-0.13673 0.058927,-0.05892 0.028173,0.0704 0.024709,0.154527 -0.00771,0.186936 -0.032409,0.03241 -0.05546,-0.02519 -0.051227,-0.128011 z"
       id="path43" />
    <path
       style="fill:#a9eec2;fill-opacity:0;stroke:#ffffff;stroke-width:0.0840465;stroke-dasharray:none;stroke-opacity:1"
       d="M 17.067409,17.854551 C 16.50421,17.277894 15.870973,16.619906 15.660213,16.392356 l -0.3832,-0.413726 0.933964,-0.951721 0.933961,-0.951722 1.255151,1.149609 c 0.690336,0.632285 1.360976,1.254806 1.490313,1.383378 l 0.235161,0.23377 -0.954297,1.030537 c -0.524864,0.566798 -0.982549,1.030539 -1.01708,1.030539 -0.03453,0 -0.523581,-0.471811 -1.086777,-1.048469 z"
       id="path48" />
    <path
       style="fill:#a9eec2;fill-opacity:0;stroke:#ffffff;stroke-width:0.0840465;stroke-dasharray:none;stroke-opacity:1"
       d="m 16.733912,17.347147 -1.358203,-1.360809 0.883402,-0.897798 0.883403,-0.897798 1.402663,1.298953 c 0.771463,0.714424 1.418199,1.311099 1.437189,1.325945 0.04494,0.03513 -1.751213,1.892316 -1.830126,1.892316 -0.03307,0 -0.671315,-0.612365 -1.418328,-1.360809 z"
       id="path49" />
    <path
       style="fill:#a9eec2;fill-opacity:0;stroke:#ffffff;stroke-width:0.0840465;stroke-dasharray:none;stroke-opacity:1"
       d="m 16.790726,17.269359 -1.288331,-1.243533 0.808507,-0.861739 0.808509,-0.861739 1.341065,1.236835 c 0.737585,0.680259 1.339734,1.265545 1.338108,1.300634 -0.005,0.108993 -1.523506,1.673074 -1.624273,1.673074 -0.05239,0 -0.675003,-0.559588 -1.383585,-1.243532 z"
       id="path50" />
    <path
       style="fill:#a9eec2;fill-opacity:0;stroke:#ffffff;stroke-width:0.0840465;stroke-dasharray:none;stroke-opacity:1"
       d="m 16.952702,17.275503 c -0.672054,-0.633679 -1.229715,-1.186958 -1.239246,-1.229507 -0.0095,-0.04255 0.305639,-0.425008 0.700377,-0.849907 l 0.717709,-0.772544 1.253119,1.192819 c 1.441706,1.372335 1.41184,1.214451 0.415335,2.195565 l -0.625379,0.615717 z"
       id="path51" />
    <path
       style="fill:#a9eec2;fill-opacity:0;stroke:#ffffff;stroke-width:0.0840465;stroke-dasharray:none;stroke-opacity:1"
       d="m 16.99125,17.169159 -1.200751,-1.143333 0.675498,-0.73139 0.6755,-0.731392 0.964278,0.921035 c 1.549355,1.479881 1.527284,1.402389 0.647453,2.273039 l -0.561227,0.555372 z"
       id="path52" />
    <path
       style="fill:#a9eec2;fill-opacity:0;stroke:#ffffff;stroke-width:0.0840465;stroke-dasharray:none;stroke-opacity:1"
       d="m 17.063098,17.117483 -1.129161,-1.099686 0.609538,-0.66591 0.609541,-0.66591 1.031882,1.011287 c 0.693367,0.679526 1.031812,1.081786 1.031667,1.226186 -1.28e-4,0.125527 -0.213163,0.439227 -0.512261,0.754307 l -0.512042,0.53941 z"
       id="path53" />
    <path
       style="fill:#a9eec2;fill-opacity:0;stroke:#ffffff;stroke-width:0.0840465;stroke-dasharray:none;stroke-opacity:1"
       d="m 17.115366,17.045856 -1.050737,-1.054006 0.550657,-0.568204 0.550656,-0.568203 0.976438,0.984664 c 0.53704,0.541565 0.976436,1.034855 0.976436,1.096201 0,0.06135 -0.214359,0.348242 -0.476356,0.637548 l -0.476355,0.526006 z"
       id="path54" />
    <path
       style="fill:#a9eec2;fill-opacity:0;stroke:#ffffff;stroke-width:0.0840465;stroke-dasharray:none;stroke-opacity:1"
       d="m 17.149303,16.976763 -0.941767,-0.950937 0.463683,-0.512042 c 0.255027,-0.281624 0.485463,-0.512043 0.512082,-0.512043 0.02662,0 0.454777,0.439329 0.951463,0.976288 l 0.903064,0.976286 -0.407483,0.486692 c -0.224113,0.267681 -0.437133,0.486692 -0.473378,0.486692 -0.03624,0 -0.489692,-0.42792 -1.007664,-0.950936 z"
       id="path55" />
    <path
       style="fill:#a9eec2;fill-opacity:0;stroke:#ffffff;stroke-width:0.0840465;stroke-dasharray:none;stroke-opacity:1"
       d="M 13.749278,6.9406219 C 13.215755,6.4229149 12.78127,5.9730485 12.783752,5.9409185 c 0.0025,-0.032129 0.276931,-0.3548844 0.609883,-0.7172339 l 0.605369,-0.6588172 1.072542,0.9333419 c 0.5899,0.5133378 1.086948,0.9737141 1.104554,1.0230579 0.05408,0.1515823 -1.077773,1.3606396 -1.273758,1.3606396 -0.100663,0 -0.619543,-0.4235779 -1.153064,-0.9412849 z"
       id="path64" />
    <path
       style="fill:#a9eec2;fill-opacity:0;stroke:#ffffff;stroke-width:0.0840465;stroke-dasharray:none;stroke-opacity:1"
       d="M 14.011238,7.0447383 C 13.261042,6.3870959 12.974301,6.0672455 12.974301,5.8880661 c 0,-0.030809 0.233549,-0.3100673 0.518997,-0.6205641 l 0.518997,-0.5645385 0.86859,0.7609149 c 1.396397,1.2232941 1.319018,1.0260368 0.675256,1.7213779 -0.305075,0.3295155 -0.587639,0.5991192 -0.627927,0.5991192 -0.04029,0 -0.452924,-0.3328367 -0.916976,-0.7396372 z"
       id="path65" />
    <path
       style="fill:#a9eec2;fill-opacity:0;stroke:#ffffff;stroke-width:0.0840465;stroke-dasharray:none;stroke-opacity:1"
       d="M 13.889435,6.773885 13.024908,5.9584589 13.494807,5.408437 c 0.258444,-0.3025116 0.49942,-0.5495088 0.535506,-0.5488831 0.03608,6.345e-4 0.481473,0.3885808 0.989754,0.8621238 l 0.924151,0.8609868 -0.43649,0.4989312 C 15.267659,7.3560086 14.999851,7.5825043 14.9126,7.5849199 14.825347,7.5872959 14.364924,7.2223697 13.889435,6.773885 Z"
       id="path66" />
    <path
       style="fill:#a9eec2;fill-opacity:0;stroke:#ffffff;stroke-width:0.0840465;stroke-dasharray:none;stroke-opacity:1"
       d="M 14.012794,6.7423904 C 13.548909,6.3302271 13.169365,5.966305 13.169365,5.9336761 c 0,-0.032631 0.192989,-0.2487299 0.428863,-0.4802223 0.30707,-0.3013667 0.469213,-0.3971512 0.570955,-0.337286 0.07815,0.045989 0.483387,0.3965863 0.900522,0.7791135 l 0.758433,0.695503 -0.415253,0.4504973 c -0.22839,0.2477743 -0.447072,0.4504973 -0.485958,0.4504973 -0.03889,0 -0.450248,-0.3372244 -0.914133,-0.7493885 z"
       id="path67" />
    <path
       style="fill:#a9eec2;fill-opacity:0;stroke:#ffffff;stroke-width:0.0840465;stroke-dasharray:none;stroke-opacity:1"
       d="M 14.071536,6.6535984 C 13.682628,6.3010716 13.364429,5.9541301 13.364429,5.882618 c 0,-0.07151 0.16648,-0.2618772 0.369956,-0.4230331 l 0.369954,-0.2930102 0.783658,0.7058246 0.783658,0.7058238 -0.310545,0.3592457 C 15.190313,7.1350544 14.989384,7.2962297 14.914605,7.2956357 14.839822,7.2950478 14.460444,7.0061244 14.071536,6.6535984 Z"
       id="path68" />
    <path
       style="fill:#a9eec2;fill-opacity:0;stroke:#ffffff;stroke-width:0.0840465;stroke-dasharray:none;stroke-opacity:1"
       d="M 14.142874,6.5499784 13.454682,5.9007734 13.7204,5.6234248 c 0.146143,-0.1525424 0.312366,-0.2753176 0.369383,-0.2728351 0.05701,0.00246 0.409971,0.2858442 0.784341,0.6296934 l 0.680675,0.6251798 -0.28441,0.2968602 c -0.156426,0.1632732 -0.319267,0.2968602 -0.361867,0.2968602 -0.0426,0 -0.387144,-0.2921425 -0.765648,-0.6492049 z"
       id="path69" />
    <path
       style="fill:#a9eec2;fill-opacity:0;stroke:#ffffff;stroke-width:0.0840465;stroke-dasharray:none;stroke-opacity:1"
       d="m 14.203756,6.4742484 -0.672417,-0.6071819 0.299476,-0.2132454 0.299476,-0.2132462 0.616772,0.5590085 c 0.339225,0.3074537 0.633998,0.5704125 0.655054,0.5843509 0.05776,0.038236 -0.196145,0.3220478 -0.371622,0.4153991 -0.114665,0.061002 -0.327109,-0.07393 -0.826739,-0.525085 z"
       id="path70" />
    <path
       style="fill:#a9eec2;fill-opacity:0;stroke:#ffffff;stroke-width:0.0840465;stroke-dasharray:none;stroke-opacity:1"
       d="m 14.274389,6.3992673 c -0.58527,-0.5029018 -0.588636,-0.5087618 -0.386147,-0.6727267 0.197277,-0.1597443 0.223525,-0.1487249 0.766782,0.3219061 0.309383,0.2680224 0.562512,0.5441091 0.562512,0.6135259 0,0.099286 -0.196436,0.244615 -0.330639,0.244615 -0.01215,0 -0.287778,-0.2282944 -0.612508,-0.5073203 z"
       id="path71" />
    <path
       style="fill:#a9eec2;fill-opacity:0;stroke:#ffffff;stroke-width:0.0840465;stroke-dasharray:none;stroke-opacity:1"
       d="M 14.356819,6.3418591 C 13.896007,5.9328339 13.802104,5.736204 14.067587,5.736204 c 0.146859,0 1.052093,0.8969404 0.996317,0.9871888 -0.08743,0.1414578 -0.165083,0.099554 -0.707085,-0.3815337 z"
       id="path72" />
    <path
       style="fill:#a9eec2;fill-opacity:0;stroke:#ffffff;stroke-width:0.0840465;stroke-dasharray:none;stroke-opacity:1"
       d="m 17.231442,16.898554 c -0.463937,-0.458744 -0.843521,-0.866786 -0.843521,-0.906759 0,-0.03997 0.176084,-0.244619 0.391294,-0.454768 l 0.391297,-0.38209 0.779732,0.775157 c 0.428851,0.426338 0.805738,0.8571 0.837524,0.95725 0.03946,0.124328 -0.04416,0.287284 -0.263605,0.513693 -0.17677,0.182378 -0.350155,0.331598 -0.3853,0.331598 -0.03515,0 -0.443485,-0.375336 -0.907421,-0.834081 z"
       id="path75" />
    <path
       style="fill:#a9eec2;fill-opacity:0;stroke:#ffffff;stroke-width:0.0840465;stroke-dasharray:none;stroke-opacity:1"
       d="m 17.239036,16.779541 -0.753585,-0.758033 0.299696,-0.363586 c 0.164835,-0.199971 0.336267,-0.363585 0.380962,-0.363585 0.0447,0 0.418607,0.371575 0.830913,0.825721 l 0.749648,0.825723 -0.210695,0.295896 c -0.115885,0.162742 -0.285545,0.295896 -0.377025,0.295896 -0.09148,0 -0.505441,-0.341115 -0.919914,-0.758032 z"
       id="path76" />
    <path
       style="fill:#a9eec2;fill-opacity:0;stroke:#ffffff;stroke-width:0.0840465;stroke-dasharray:none;stroke-opacity:1"
       d="m 17.327693,16.732932 -0.763611,-0.707106 0.30751,-0.291693 0.30751,-0.291694 0.74059,0.757567 0.740589,0.757567 -0.226628,0.241233 c -0.124646,0.13268 -0.252664,0.241236 -0.28449,0.241236 -0.03182,0 -0.401486,-0.318199 -0.82147,-0.70711 z"
       id="path77" />
    <path
       style="fill:#a9eec2;fill-opacity:0;stroke:#ffffff;stroke-width:0.0840465;stroke-dasharray:none;stroke-opacity:1"
       d="m 17.427291,16.690377 -0.735894,-0.664551 0.228249,-0.23147 c 0.125534,-0.127309 0.27178,-0.204566 0.324991,-0.171681 0.05321,0.03289 0.36416,0.361423 0.691003,0.730084 0.574803,0.648348 0.588256,0.675724 0.4109,0.836229 -0.175188,0.158544 -0.216148,0.136327 -0.919249,-0.498611 z"
       id="path79" />
    <path
       style="fill:#a9eec2;fill-opacity:0;stroke:#ffffff;stroke-width:0.0840465;stroke-dasharray:none;stroke-opacity:1"
       d="m 17.449708,16.563353 c -0.585848,-0.549355 -0.611293,-0.591058 -0.427829,-0.701216 0.107285,-0.06442 0.217009,-0.102042 0.243829,-0.08361 0.155927,0.107159 1.072852,1.196913 1.072852,1.275072 0,0.223978 -0.308841,0.05364 -0.888852,-0.490246 z"
       id="path80" />
    <path
       style="fill:#69e295;fill-opacity:0;stroke:#ffffff;stroke-width:0.0840465;stroke-dasharray:none;stroke-opacity:1"
       d="M 4.976681,16.649604 C 4.3597896,16.217581 3.7963347,15.807281 3.7245572,15.737829 3.6165207,15.633292 3.6969857,15.532348 4.1919397,15.15149 c 0.369204,-0.284095 0.6559075,-0.4378 0.7495777,-0.401854 0.2047364,0.07857 2.2570115,1.504046 2.3259307,1.615557 0.041282,0.06679 -1.0505252,1.085064 -1.1498318,1.07238 C 6.1069919,17.436165 5.59357,17.081631 4.976681,16.649604 Z"
       id="path91" />
    <path
       style="fill:#69e295;fill-opacity:0;stroke:#ffffff;stroke-width:0.0840465;stroke-dasharray:none;stroke-opacity:1"
       d="M 5.4586225,16.869711 C 3.7457024,15.653958 3.7816088,15.685556 3.9206461,15.516235 3.9918599,15.429511 4.241841,15.236542 4.4761587,15.087418 l 0.4260322,-0.271136 0.7443526,0.49836 c 0.409393,0.274098 0.9119274,0.629109 1.1167437,0.788915 L 7.1356809,16.394111 6.7632872,16.7785 c -0.5775649,0.596167 -0.5918114,0.597161 -1.3046647,0.09121 z"
       id="path92" />
    <path
       style="fill:#69e295;fill-opacity:0;stroke:#ffffff;stroke-width:0.0840465;stroke-dasharray:none;stroke-opacity:1"
       d="M 5.0324092,16.438453 C 4.4998119,16.050582 4.0504178,15.689341 4.0337503,15.635699 4.0170856,15.582054 4.2066609,15.397633 4.4550276,15.22587 L 4.9066052,14.913572 5.7015713,15.4697 c 0.4372301,0.305869 0.9177613,0.646226 1.0678437,0.756345 l 0.2728778,0.200218 -0.3991284,0.36059 C 6.4236432,16.985179 6.1892974,17.146597 6.1223995,17.14556 6.0555017,17.144592 5.5650042,16.826327 5.0324092,16.438453 Z"
       id="path93" />
    <path
       style="fill:#69e295;fill-opacity:0;stroke:#ffffff;stroke-width:0.0840465;stroke-dasharray:none;stroke-opacity:1"
       d="M 5.5048923,16.647139 C 4.6875706,16.076588 4.1964245,15.680506 4.1964245,15.591933 c 0,-0.04188 0.1628644,-0.184222 0.3619197,-0.316321 l 0.3619198,-0.24018 0.9547631,0.673026 c 0.5251181,0.370165 0.9547608,0.70849 0.9547608,0.751834 0,0.073 -0.6210635,0.589621 -0.7088128,0.589621 -0.021507,0 -0.2987451,-0.181248 -0.6160828,-0.402774 z"
       id="path94" />
    <path
       style="fill:#69e295;fill-opacity:0;stroke:#ffffff;stroke-width:0.0840465;stroke-dasharray:none;stroke-opacity:1"
       d="M 5.3643106,16.420804 C 4.4550675,15.781458 4.3255967,15.637549 4.485885,15.444412 c 0.2694297,-0.324642 0.4755176,-0.271924 1.3198843,0.337634 0.4559261,0.329137 0.8289545,0.632529 0.8289545,0.674204 0,0.07571 -0.2536107,0.320019 -0.4400907,0.423956 -0.054302,0.03026 -0.4279457,-0.176467 -0.8303225,-0.459402 z"
       id="path95" />
    <path
       style="fill:#69e295;fill-opacity:0;stroke:#ffffff;stroke-width:0.0840465;stroke-dasharray:none;stroke-opacity:1"
       d="M 5.503844,16.37271 C 4.7063276,15.840129 4.5865527,15.734 4.5865527,15.559925 c 0,-0.374001 0.4584788,-0.222254 1.3404912,0.44367 0.5494035,0.414804 0.5754825,0.456779 0.3955768,0.636683 -0.164759,0.164758 -0.1777385,0.160519 -0.8187767,-0.267568 z"
       id="path96" />
    <path
       style="fill:#69e295;fill-opacity:0;stroke:#ffffff;stroke-width:0.202551;stroke-dasharray:none;stroke-opacity:1"
       d="m 14.237016,6.011937 c 0.313405,0.1356858 0.432981,0.3937587 0.577132,0.6820652 0.01566,0.031284 -0.02474,0.080204 0,0.1049331 0.06029,0.060289 0.09279,0.052466 0.157403,0.052466"
       id="path114" />
    <path
       style="fill:#69e295;fill-opacity:0;stroke:#ffffff;stroke-width:0.202551;stroke-dasharray:none;stroke-opacity:1"
       d="m 17.280078,16.033056 c 0.08745,0.122422 0.184931,0.23826 0.262333,0.367266 0.01135,0.01895 0.144858,0.302256 0.1574,0.314798 0.02879,0.02879 0.2928,0.142733 0.314801,0.1574 0.13991,0.09327 -0.210231,0.01737 0.05247,0.104934 0.122422,0.04081 0.104934,-0.05538 0.104934,0.05247"
       id="path115" />
    <path
       style="fill:#69e295;fill-opacity:0;stroke:#ffffff;stroke-width:0.202551;stroke-dasharray:none;stroke-opacity:1"
       d="m 5.0028964,15.770722 c 0.3617241,0.05167 0.4015795,0.0249 0.7345344,0.209866 0.1079705,0.05998 0.460641,0.396621 0.5246642,0.524667 0.048132,0.09626 -0.078897,0.16381 -0.1574,0.104934 C 5.8826663,16.693669 6.029547,16.445 5.9997619,16.400322 5.8680487,16.202748 5.5298453,15.66655 5.3701632,15.613322 c -0.1804812,-0.06016 -0.1519932,0.1574 -0.3672668,0.1574 -0.1173189,0 -0.209865,-0.104933 -0.314799,-0.1574 -0.034976,-0.01749 0.07728,0.02482 0.104934,0.05247 0.012366,0.01237 0,0.03497 0,0.05247 0.069951,0.01749 0.1535583,0.0075 0.209865,0.05247 0.1259068,0.100725 0.1934558,0.261087 0.3148015,0.367265 0.026323,0.02304 0.072456,-0.013 0.1049313,0 0.058553,0.02341 0.098853,0.08151 0.157399,0.104934 0.2499276,0.09997 -0.070057,-0.169129 0.2623339,0.05247 0.032542,0.02169 0.024813,0.07728 0.052468,0.104933"
       id="path116" />
  </g>
</svg>
